<?xml version="1.0" encoding="iso-8859-1"?>
<!-- Uploaded to: SVG Repo, www.svgrepo.com, Generator: SVG Repo Mixer Tools -->
<svg version="1.1" id="Layer_1" xmlns="http://www.w3.org/2000/svg" xmlns:xlink="http://www.w3.org/1999/xlink" 
	 viewBox="0 0 512 512" xml:space="preserve">
<path style="fill:#CAF9F4;" d="M417.959,504.163H94.041V96.653c0-11.542,9.356-20.898,20.898-20.898h282.122
	c11.542,0,20.898,9.356,20.898,20.898V504.163z"/>
<rect x="120.163" y="7.837" style="fill:#79CAE8;" width="271.673" height="496.327"/>
<rect x="120.163" y="332.278" style="fill:#CAF9F4;" width="271.673" height="171.886"/>
<rect x="169.399" y="370.552" style="fill:#79CAE8;" width="173.192" height="133.611"/>
<rect x="120.163" y="7.837" style="fill:#4B92B9;" width="271.673" height="94.041"/>
<g>
	<rect x="154.122" y="130.612" style="fill:#CAF9F4;" width="203.755" height="121.208"/>
	<rect x="295.184" y="130.612" style="fill:#CAF9F4;" width="62.694" height="121.208"/>
</g>
<path style="fill:#FFFFFF;" d="M292.571,305.633h-73.143c-7.214,0-13.061-5.847-13.061-13.061l0,0
	c0-7.214,5.847-13.061,13.061-13.061h73.143c7.214,0,13.061,5.847,13.061,13.061l0,0
	C305.633,299.785,299.785,305.633,292.571,305.633z"/>
<rect x="170.318" y="40.751" style="fill:#CAF9F4;" width="171.363" height="28.212"/>
<rect x="182.857" y="155.303" style="fill:#4B92B9;" width="83.592" height="71.826"/>
<path d="M399.673,68.043V0H112.327v68.043c-14.623,1.325-26.122,13.647-26.122,28.61V512h26.122h7.837h271.673h7.837h26.122V96.653
	C425.796,81.69,414.297,69.368,399.673,68.043z M128,109.714h256v214.727H128V109.714z M384,15.673v78.367H128V15.673H384z
	 M101.878,496.327V96.653c0-6.308,4.494-11.584,10.449-12.798v412.471H101.878z M334.759,496.327H177.241V378.386h157.518V496.327z
	 M350.433,496.327V362.712H161.567v133.614H128V340.114h256v156.212H350.433z M410.122,496.327h-10.449V83.855
	c5.955,1.214,10.449,6.49,10.449,12.798V496.327z"/>
<path d="M146.286,122.776v136.882h219.429V122.776H146.286z M350.041,163.179h-47.02v-24.73h47.02V163.179z M263.545,147.465
	h-77.783l-10.494-9.016h98.771L263.545,147.465z M258.612,163.139v56.154h-67.918v-56.154H258.612z M175.02,158.901v64.631
	l-13.061,11.222v-87.077L175.02,158.901z M185.761,234.967h77.783l10.494,9.016h-98.771L185.761,234.967z M274.286,223.532v-64.631
	l13.061-11.223v87.077L274.286,223.532z M303.02,178.852h47.02v24.73h-47.02V178.852z M303.02,243.984v-24.73h47.02v24.73H303.02z"
	/>
<path d="M292.571,271.673h-73.143c-11.523,0-20.898,9.375-20.898,20.898c0,11.523,9.375,20.898,20.898,20.898h73.143
	c11.523,0,20.898-9.375,20.898-20.898C313.469,281.048,304.095,271.673,292.571,271.673z M292.571,297.796h-73.143
	c-2.881,0-5.224-2.344-5.224-5.224s2.344-5.224,5.224-5.224h73.143c2.881,0,5.224,2.344,5.224,5.224
	S295.452,297.796,292.571,297.796z"/>
<path d="M349.518,32.914H162.482V76.8h187.037V32.914z M333.845,61.127h-155.69V48.588h155.69V61.127z"/>
</svg>